# xmcd
#
# Track frame offsets: 
#        150
#        2287
#        23265
#        33305
#        45225
#        58345
#        75940
#        80832
#        97330
#        112322
#        117707
#        133737
#        141160
#        155087
#        172360
#        186970
#        211787
#
# Disc length: 2979 seconds
#
# Revision: 9
# Processed by: cddbd v1.5.2PL0 Copyright (c) Steve Scherf et al.
# Submitted via: ExactAudioCopyFreeDBPlugin 1.0
#
DISCID=ed0ba111
DTITLE=The Carpenters - Christmas Collection
DYEAR=1996
DGENRE=Holiday
TTITLE0=O Come, O Come Emmanuel
TTITLE1=Overture
TTITLE2=The Christmas Waltz
TTITLE3=Sleigh Ride
TTITLE4=It's Christmas Time - Sleep Well, Little Children
TTITLE5=Have Yourself a Merry Little Christmas
TTITLE6=Santa Claus is Coming to Town
TTITLE7=Christmas Song (Chestnuts Roasting on an Open Fire)
TTITLE8=Silent Night
TTITLE9=Jingle Bells
TTITLE10=The First Snowfall - Let It Snow
TTITLE11=Carol of the Bells
TTITLE12=Merry Christmas Darling
TTITLE13=I'll Be Home for Christmas
TTITLE14=Christ is Born
TTITLE15=Winter Wonderland - Silver Bells - White Christmas
TTITLE16=Ave Maria
EXTD=
EXTT0=
EXTT1=
EXTT2=
EXTT3=
EXTT4=
EXTT5=
EXTT6=
EXTT7=
EXTT8=
EXTT9=
EXTT10=
EXTT11=
EXTT12=
EXTT13=
EXTT14=
EXTT15=
EXTT16=
PLAYORDER=
